{
	"asset":{
		"generator":"Khronos glTF Blender I/O v3.5.30",
		"version":"2.0"
	},
	"scene":0,
	"scenes":[
		{
			"name":"Scene",
			"nodes":[
				0,
				1,
				2
			]
		}
	],
	"nodes":[
		{
			"mesh":0,
			"name":"Grade"
		},
		{
			"mesh":1,
			"name":"Grade.001"
		},
		{
			"mesh":2,
			"name":"Plane",
			"scale":[
				2.0535366535186768,
				2.0535366535186768,
				2.0535366535186768
			],
			"translation":[
				0,
				-0.515198826789856,
				1.3301728963851929
			]
		}
	],
	"materials":[
		{
			"doubleSided":true,
			"name":"Materiais.002",
			"pbrMetallicRoughness":{
				"baseColorTexture":{
					"index":0
				},
				"metallicFactor":0,
				"roughnessFactor":0.5
			}
		},
		{
			"doubleSided":true,
			"name":"Material.002",
			"pbrMetallicRoughness":{
				"baseColorTexture":{
					"index":1
				},
				"metallicFactor":0,
				"roughnessFactor":0.5
			}
		}
	],
	"meshes":[
		{
			"name":"Grade",
			"primitives":[
				{
					"attributes":{
						"POSITION":0,
						"TEXCOORD_0":1,
						"NORMAL":2
					},
					"indices":3,
					"material":0
				}
			]
		},
		{
			"name":"Grade.001",
			"primitives":[
				{
					"attributes":{
						"POSITION":4,
						"TEXCOORD_0":5,
						"NORMAL":6
					},
					"indices":7,
					"material":0
				}
			]
		},
		{
			"name":"Plane",
			"primitives":[
				{
					"attributes":{
						"POSITION":8,
						"TEXCOORD_0":9,
						"NORMAL":10
					},
					"indices":11,
					"material":1
				}
			]
		}
	],
	"textures":[
		{
			"sampler":0,
			"source":0
		},
		{
			"sampler":0,
			"source":1
		}
	],
	"images":[
		{
			"mimeType":"image/png",
			"name":"texturagrid",
			"uri":"texturagrid.png"
		},
		{
			"mimeType":"image/png",
			"name":"agua",
			"uri":"agua.png"
		}
	],
	"accessors":[
		{
			"bufferView":0,
			"componentType":5126,
			"count":729,
			"max":[
				10,
				3.3319828510284424,
				6.3873395919799805
			],
			"min":[
				-10,
				-1.1033046245574951,
				-6.206818103790283
			],
			"type":"VEC3"
		},
		{
			"bufferView":1,
			"componentType":5126,
			"count":729,
			"type":"VEC2"
		},
		{
			"bufferView":2,
			"componentType":5126,
			"count":729,
			"type":"VEC3"
		},
		{
			"bufferView":3,
			"componentType":5123,
			"count":1071,
			"type":"SCALAR"
		},
		{
			"bufferView":4,
			"componentType":5126,
			"count":1513,
			"max":[
				10,
				3.366413116455078,
				10
			],
			"min":[
				-10,
				-0.45850858092308044,
				-10
			],
			"type":"VEC3"
		},
		{
			"bufferView":5,
			"componentType":5126,
			"count":1513,
			"type":"VEC2"
		},
		{
			"bufferView":6,
			"componentType":5126,
			"count":1513,
			"type":"VEC3"
		},
		{
			"bufferView":7,
			"componentType":5123,
			"count":2205,
			"type":"SCALAR"
		},
		{
			"bufferView":8,
			"componentType":5126,
			"count":4,
			"max":[
				4.869297504425049,
				0,
				2.503396511077881
			],
			"min":[
				-4.865777492523193,
				0,
				-1.429672122001648
			],
			"type":"VEC3"
		},
		{
			"bufferView":9,
			"componentType":5126,
			"count":4,
			"type":"VEC2"
		},
		{
			"bufferView":10,
			"componentType":5126,
			"count":4,
			"type":"VEC3"
		},
		{
			"bufferView":11,
			"componentType":5123,
			"count":6,
			"type":"SCALAR"
		}
	],
	"bufferViews":[
		{
			"buffer":0,
			"byteLength":8748,
			"byteOffset":0,
			"target":34962
		},
		{
			"buffer":0,
			"byteLength":5832,
			"byteOffset":8748,
			"target":34962
		},
		{
			"buffer":0,
			"byteLength":8748,
			"byteOffset":14580,
			"target":34962
		},
		{
			"buffer":0,
			"byteLength":2142,
			"byteOffset":23328,
			"target":34963
		},
		{
			"buffer":0,
			"byteLength":18156,
			"byteOffset":25472,
			"target":34962
		},
		{
			"buffer":0,
			"byteLength":12104,
			"byteOffset":43628,
			"target":34962
		},
		{
			"buffer":0,
			"byteLength":18156,
			"byteOffset":55732,
			"target":34962
		},
		{
			"buffer":0,
			"byteLength":4410,
			"byteOffset":73888,
			"target":34963
		},
		{
			"buffer":0,
			"byteLength":48,
			"byteOffset":78300,
			"target":34962
		},
		{
			"buffer":0,
			"byteLength":32,
			"byteOffset":78348,
			"target":34962
		},
		{
			"buffer":0,
			"byteLength":48,
			"byteOffset":78380,
			"target":34962
		},
		{
			"buffer":0,
			"byteLength":12,
			"byteOffset":78428,
			"target":34963
		}
	],
	"samplers":[
		{
			"magFilter":9729,
			"minFilter":9987
		}
	],
	"buffers":[
		{
			"byteLength":78440,
			"uri":"terreno.bin"
		}
	]
}
